# xmcd
#
# Track frame offsets: 
#        150
#        13615
#        27640
#        43672
#        61309
#        71542
#        83956
#        96667
#        113168
#        124727
#
# Disc length: 1875 seconds
#
# Revision: 0
# Processed by: cddbd v1.5.2PL0 Copyright (c) Steve Scherf et al.
# Submitted via: ExactAudioCopy v0.99pb5
#
DISCID=8a07510a
DTITLE=Made New - Back Home
DYEAR=2009
DGENRE=Southern Gospel 
TTITLE0=I'm Feeling Fine
TTITLE1=He didn't throw the clay...
TTITLE2=Farther along
TTITLE3=Sheltered in the arms of God
TTITLE4=Wingin' my way back home
TTITLE5=Tears will never stain...
TTITLE6=How great it is
TTITLE7=The first look
TTITLE8=Just any day now
TTITLE9=Till the storm passes by
EXTD=
EXTT0=
EXTT1=
EXTT2=
EXTT3=
EXTT4=
EXTT5=
EXTT6=
EXTT7=
EXTT8=
EXTT9=
PLAYORDER=
